<svg xmlns="http://www.w3.org/2000/svg" version="1.1" xmlns:xlink="http://www.w3.org/1999/xlink" xmlns:svgjs="http://svgjs.dev/svgjs" width="1440" height="560" preserveAspectRatio="none" viewBox="0 0 1440 560"><g mask="url(&quot;#SvgjsMask1006&quot;)" fill="none"><rect width="1440" height="560" x="0" y="0" fill="rgba(213, 213, 213, 1)"></rect><path d="M1270.5 100.72L1294.76 100.72L1294.76 103.65L1270.5 103.65z" stroke="rgba(255, 184, 0, 1)"></path><path d="M1289.79 436.73 a36.74 36.74 0 1 0 73.48 0 a36.74 36.74 0 1 0 -73.48 0z" fill="rgba(255, 184, 0, 1)"></path><path d="M503.28 521.97L554.22 521.97L554.22 537.98L503.28 537.98z" stroke="rgba(255, 184, 0, 1)"></path><path d="M344.75 388.05L381.78 388.05L381.78 440.56L344.75 440.56z" stroke="rgba(105, 11, 11, 1)"></path><path d="M1343.76 447.8a12.25 12.25 0 1 0 23.58 6.68z" fill="rgba(255, 184, 0, 1)"></path><path d="M1247.65 440.38L1257.47 440.38L1257.47 442.08L1247.65 442.08z" fill="rgba(105, 11, 11, 1)"></path><path d="M758.05 475.03 a33.99 33.99 0 1 0 67.98 0 a33.99 33.99 0 1 0 -67.98 0z" fill="rgba(105, 11, 11, 1)"></path><path d="M990.94 45.06L1041.1 45.06L1041.1 95.22L990.94 95.22z" fill="rgba(255, 184, 0, 1)"></path><path d="M1103.26 258.52L1142.63 258.52L1142.63 297.89L1103.26 297.89z" stroke="rgba(105, 11, 11, 1)"></path><path d="M2.65 301.21 a34.45 34.45 0 1 0 68.9 0 a34.45 34.45 0 1 0 -68.9 0z" fill="rgba(105, 11, 11, 1)"></path><path d="M397.5 502.13 a20.66 20.66 0 1 0 41.32 0 a20.66 20.66 0 1 0 -41.32 0z" stroke="rgba(255, 184, 0, 1)"></path><path d="M694.89 297.93a38.73 38.73 0 1 0 19.97 74.84z" fill="rgba(255, 184, 0, 1)"></path><path d="M307.47 131.09L351.45 131.09L351.45 181.45L307.47 181.45z" stroke="rgba(105, 11, 11, 1)"></path><path d="M1400.01 301.26 a31.52 31.52 0 1 0 63.04 0 a31.52 31.52 0 1 0 -63.04 0z" fill="rgba(105, 11, 11, 1)"></path><path d="M26.28 116.84a15.64 15.64 0 1 0 21.15 23.05z" stroke="rgba(105, 11, 11, 1)"></path><path d="M0.81 343.45L44.3 343.45L44.3 370.79L0.81 370.79z" fill="rgba(105, 11, 11, 1)"></path><path d="M314.06 302.1 a8.14 8.14 0 1 0 16.28 0 a8.14 8.14 0 1 0 -16.28 0z" stroke="rgba(255, 184, 0, 1)"></path><path d="M692.74 241.96L729.33 241.96L729.33 289.98L692.74 289.98z" fill="rgba(105, 11, 11, 1)"></path><path d="M952.38 122.9L971.64 122.9L971.64 142.16L952.38 142.16z" fill="rgba(105, 11, 11, 1)"></path><path d="M819.66 350.12a39.45 39.45 0 1 0 16.16 77.23z" fill="rgba(105, 11, 11, 1)"></path><path d="M490.03 439.3 a53.25 53.25 0 1 0 106.5 0 a53.25 53.25 0 1 0 -106.5 0z" fill="rgba(255, 184, 0, 1)"></path><path d="M717.63 492.3L750.21 492.3L750.21 519.02L717.63 519.02z" fill="rgba(255, 184, 0, 1)"></path><path d="M919.94 262.24 a43.37 43.37 0 1 0 86.74 0 a43.37 43.37 0 1 0 -86.74 0z" fill="rgba(255, 184, 0, 1)"></path><path d="M314.2 29.28L328.65 29.28L328.65 83.56L314.2 83.56z" fill="rgba(105, 11, 11, 1)"></path><path d="M325.05 423.81a7.19 7.19 0 1 0-7.91 12.01z" stroke="rgba(255, 184, 0, 1)"></path><path d="M315.15 167.53 a53.4 53.4 0 1 0 106.8 0 a53.4 53.4 0 1 0 -106.8 0z" stroke="rgba(105, 11, 11, 1)"></path><path d="M493.29 201.69a33.32 33.32 0 1 0 61.92-24.62z" stroke="rgba(105, 11, 11, 1)"></path><path d="M879.43 407.75a14.52 14.52 0 1 0 18.24 22.6z" fill="rgba(105, 11, 11, 1)"></path><path d="M428.21 90.58L465.95 90.58L465.95 128.32L428.21 128.32z" fill="rgba(105, 11, 11, 1)"></path><path d="M845.66 488.99 a46.7 46.7 0 1 0 93.4 0 a46.7 46.7 0 1 0 -93.4 0z" stroke="rgba(255, 184, 0, 1)"></path><path d="M1089.42 254.92a48.88 48.88 0 1 0-97.35 8.9z" fill="rgba(105, 11, 11, 1)"></path><path d="M119.33 134.09 a28.79 28.79 0 1 0 57.58 0 a28.79 28.79 0 1 0 -57.58 0z" stroke="rgba(105, 11, 11, 1)"></path><path d="M753.7 68.49a1.95 1.95 0 1 0 1.73-3.5z" stroke="rgba(105, 11, 11, 1)"></path></g><defs><mask id="SvgjsMask1006"><rect width="1440" height="560" fill="#ffffff"></rect></mask></defs></svg>